<svg width="19" height="17" viewBox="0 0 19 17" fill="none" xmlns="http://www.w3.org/2000/svg">
<g clip-path="url(#clip0_256_1075)">
<path d="M3.76204 17.0001C4.49842 17.0001 5.09538 16.3964 5.09538 15.6517C5.09538 14.9069 4.49842 14.3032 3.76204 14.3032C3.02566 14.3032 2.42871 14.9069 2.42871 15.6517C2.42871 16.3964 3.02566 17.0001 3.76204 17.0001Z" fill="white"/>
<path d="M12.8099 17.0001C13.5463 17.0001 14.1432 16.3964 14.1432 15.6517C14.1432 14.9069 13.5463 14.3032 12.8099 14.3032C12.0735 14.3032 11.4766 14.9069 11.4766 15.6517C11.4766 16.3964 12.0735 17.0001 12.8099 17.0001Z" fill="white"/>
<path d="M18.9524 0.481659C18.8571 0.144549 18.4762 -0.0480859 18.1429 0.0482314L15.3809 0.915087C15.0952 1.0114 14.9048 1.2522 14.9048 1.54115V3.46749L0.571429 5.92359C0.238095 5.97174 0 6.2607 0 6.59781V12.6176C0 13.0029 0.285714 13.2919 0.666667 13.2919H15.5714C15.9524 13.2919 16.2381 13.0029 16.2381 12.6176V6.2607V4.0454V2.02274L18.5238 1.30036C18.8571 1.20404 19.0476 0.81877 18.9524 0.481659ZM14.9048 11.9434H1.33333V7.17571L14.9048 4.81594V6.2607V11.9434Z" fill="white"/>
</g>
<defs>
<clipPath id="clip0_256_1075">
<rect width="19" height="17" fill="white"/>
</clipPath>
</defs>
</svg>
