<svg width="19" height="17" viewBox="0 0 19 17" fill="none" xmlns="http://www.w3.org/2000/svg">
<g clip-path="url(#clip0_360_916)">
<path d="M3.7618 17.0001C4.49818 17.0001 5.09513 16.3964 5.09513 15.6517C5.09513 14.9069 4.49818 14.3032 3.7618 14.3032C3.02542 14.3032 2.42847 14.9069 2.42847 15.6517C2.42847 16.3964 3.02542 17.0001 3.7618 17.0001Z" fill="#333333"/>
<path d="M12.8094 17.0001C13.5458 17.0001 14.1427 16.3964 14.1427 15.6517C14.1427 14.9069 13.5458 14.3032 12.8094 14.3032C12.073 14.3032 11.4761 14.9069 11.4761 15.6517C11.4761 16.3964 12.073 17.0001 12.8094 17.0001Z" fill="#333333"/>
<path d="M18.9524 0.481659C18.8571 0.144549 18.4762 -0.0480859 18.1429 0.0482314L15.3809 0.915087C15.0952 1.0114 14.9048 1.2522 14.9048 1.54115V3.46749L0.571429 5.92359C0.238095 5.97174 0 6.2607 0 6.59781V12.6176C0 13.0029 0.285714 13.2919 0.666667 13.2919H15.5714C15.9524 13.2919 16.2381 13.0029 16.2381 12.6176V6.2607V4.0454V2.02274L18.5238 1.30036C18.8571 1.20404 19.0476 0.81877 18.9524 0.481659ZM14.9048 11.9434H1.33333V7.17571L14.9048 4.81594V6.2607V11.9434Z" fill="#333333"/>
</g>
<defs>
<clipPath id="clip0_360_916">
<rect width="19" height="17" fill="white"/>
</clipPath>
</defs>
</svg>
