<svg width="51" height="50" viewBox="0 0 51 50" fill="none" xmlns="http://www.w3.org/2000/svg">
<g id="quotes_icon-icons.com_71111 1" clip-path="url(#clip0_194_114)">
<g id="Group">
<path id="Vector" d="M11.6708 20.317C17.6606 20.317 22.5163 25.2092 22.5163 31.2439C22.5163 37.2785 17.6606 42.1707 11.6708 42.1707C5.68095 42.1707 0.825273 37.2785 0.825273 31.2439L0.776855 29.6829C0.776855 17.6134 10.4882 7.82922 22.4678 7.82922V14.0731C18.3294 14.0731 14.4386 15.6968 11.5122 18.6451C10.949 19.2127 10.4349 19.8166 9.97112 20.451C10.5249 20.3632 11.0925 20.317 11.6708 20.317ZM39.5592 20.317C45.5489 20.317 50.4046 25.2092 50.4046 31.2439C50.4046 37.2785 45.5489 42.1707 39.5592 42.1707C33.5695 42.1707 28.7137 37.2785 28.7137 31.2439L28.6653 29.6829C28.6653 17.6134 38.3765 7.82922 50.3562 7.82922V14.0731C46.2179 14.0731 42.3269 15.6968 39.4006 18.6451C38.8373 19.2127 38.3232 19.8166 37.8594 20.451C38.4132 20.3632 38.9808 20.317 39.5592 20.317Z" fill="#3381E0" fill-opacity="0.3"/>
</g>
</g>
<defs>
<clipPath id="clip0_194_114">
<rect width="49.6278" height="50" fill="white" transform="translate(0.776855)"/>
</clipPath>
</defs>
</svg>
