<svg width="17" height="17" viewBox="0 0 17 17" fill="none" xmlns="http://www.w3.org/2000/svg">
<path d="M9.97029 4.91856C7.94931 4.20527 5.75001 5.21576 5.03672 7.23674C4.32343 9.25772 5.33392 11.457 7.3549 12.1703C9.37588 12.8836 11.5752 11.8731 12.2885 9.85212C13.0018 7.89058 11.9913 5.63184 9.97029 4.91856ZM11.3374 9.55492C10.8025 11.0409 9.13812 11.8137 7.6521 11.2787C6.16609 10.7437 5.39336 9.0794 5.92833 7.59338C6.46329 6.10737 8.12763 5.33464 9.61364 5.8696C11.0997 6.40457 11.8724 8.06891 11.3374 9.55492Z" fill="white"/>
<path d="M16.9257 10.3872L16.8663 10.1495C16.8068 9.85227 16.5691 9.67395 16.2719 9.55507L14.5481 8.90122C14.6075 8.4257 14.5481 7.95017 14.4886 7.53409L16.2124 6.76136C16.4502 6.64248 16.6879 6.40472 16.7474 6.10752L16.8068 5.86975C16.8663 5.69143 16.8068 5.45367 16.7474 5.27535L16.3313 4.3243C16.2719 4.14598 16.0935 3.96766 15.9152 3.90822L15.6774 3.78934C15.4397 3.67045 15.083 3.67045 14.8453 3.78934L13.0621 4.50262C13.0621 4.50262 13.0026 4.50262 13.0026 4.56206C12.7054 4.26486 12.3488 3.96766 11.9921 3.72989C11.9921 3.67045 12.0516 3.67045 12.0516 3.61101L12.7054 1.8278C12.8243 1.53059 12.7649 1.23339 12.5865 0.995629L12.4677 0.757867C12.3488 0.579545 12.1705 0.460664 11.9921 0.401224L11.0411 0.0445804C10.8628 -0.0148601 10.625 -0.0148601 10.4467 0.0445804L10.2089 0.104021C9.91171 0.163462 9.73339 0.401224 9.61451 0.698427L8.96066 2.48164C8.96066 2.54108 8.90122 2.65996 8.90122 2.71941C8.48514 2.71941 8.06906 2.71941 7.65297 2.83829C7.65297 2.71941 7.59353 2.65996 7.59353 2.54108L6.8208 0.817308C6.70192 0.579545 6.46416 0.341783 6.16696 0.282343L5.86976 0.222902C5.69143 0.163462 5.45367 0.222902 5.27535 0.282343L4.3243 0.698427C4.14598 0.817308 3.96766 0.936189 3.84878 1.11451L3.7299 1.35227C3.61101 1.59003 3.61101 1.94668 3.7299 2.18444L4.50262 3.90822C4.56206 4.0271 4.6215 4.08654 4.74038 4.20542C4.44318 4.44318 4.14598 4.74038 3.90822 5.09703C3.78934 5.03759 3.72989 4.91871 3.61101 4.91871L1.8278 4.26486C1.53059 4.14598 1.23339 4.20542 0.995629 4.3243L0.757867 4.50262C0.579545 4.6215 0.460664 4.74038 0.401224 4.97815L0.0445804 5.9292C-0.0148601 6.10752 -0.0148601 6.34528 0.0445804 6.5236L0.104021 6.76136C0.163462 7.05857 0.401224 7.23689 0.698427 7.35577L2.48164 8.00961C2.60052 8.06906 2.71941 8.06906 2.83829 8.06906C2.77885 8.48514 2.83829 8.90122 2.89773 9.31731C2.77885 9.31731 2.65997 9.37675 2.54108 9.37675L0.817308 10.1495C0.579545 10.2684 0.341783 10.5061 0.282343 10.8033L0.222902 11.0411C0.163462 11.2194 0.222902 11.4572 0.282343 11.6355L0.698427 12.5865C0.757867 12.7649 0.936189 12.9432 1.11451 13.0026L1.35227 13.1215C1.59003 13.2404 1.94668 13.2404 2.18444 13.1215L3.90822 12.3488C3.96766 12.2893 4.08654 12.2299 4.14598 12.1705C4.38374 12.4677 4.68094 12.7649 5.03759 13.0621C4.97815 13.1215 4.97815 13.1809 4.91871 13.2998L4.26486 15.083C4.14598 15.3802 4.20542 15.6774 4.38374 15.9152L4.50262 16.153C4.6215 16.3313 4.79983 16.4502 4.97815 16.5096L5.9292 16.8663C6.10752 16.9257 6.34528 16.9257 6.5236 16.8663L6.76136 16.8068C7.05857 16.7474 7.23689 16.5096 7.35577 16.2124L8.00962 14.4292C8.00962 14.3698 8.00962 14.3698 8.06906 14.3103C8.48514 14.3698 8.96066 14.3698 9.37675 14.3103V14.3698L10.1495 16.0935C10.2684 16.3313 10.5061 16.5691 10.8033 16.6285L11.0411 16.6879C11.2194 16.7474 11.4572 16.6879 11.6355 16.6285L12.5865 16.2124C12.7649 16.153 12.9432 15.9746 13.0026 15.7963L13.1215 15.5586C13.2404 15.3208 13.2404 14.9642 13.1215 14.7264L12.4082 13.0621C12.7649 12.7649 13.0621 12.4082 13.3593 12.0516L15.083 12.7054C15.3802 12.8243 15.6774 12.7649 15.9152 12.5865L16.153 12.4677C16.3313 12.3488 16.4502 12.1705 16.5096 11.9921L16.8663 11.0411C16.9851 10.8033 16.9851 10.625 16.9257 10.3872ZM7.05857 13.0026C4.6215 12.111 3.37325 9.37675 4.26486 6.93968C5.15647 4.50262 7.89073 3.25437 10.3278 4.14598C12.5865 4.97815 13.7753 7.29633 13.2998 9.55507L12.8243 10.8628C11.6949 12.8243 9.25787 13.8348 7.05857 13.0026Z" fill="white"/>
</svg>
