<svg width="112" height="166" viewBox="0 0 112 166" fill="none" xmlns="http://www.w3.org/2000/svg">
<g clip-path="url(#clip0_194_96)">
<path d="M9.30727 163.655C5.42915 163.655 2.32666 160.529 2.32666 156.622V24.8532C2.32666 20.9455 5.42915 17.8193 9.30727 17.8193H102.847C106.726 17.8193 109.828 20.9455 109.828 24.8532V156.622C109.828 160.529 106.726 163.655 103.003 163.655H9.30727Z" fill="white" stroke="black" stroke-width="3" stroke-miterlimit="10"/>
<path d="M100.21 30.793H11.7891V150.213H100.21V30.793Z" fill="#3B94EC"/>
<path d="M76.6315 12.8174H66.3932C66.3932 7.03399 61.7395 2.34473 55.9999 2.34473C50.2603 2.34473 45.6065 7.03399 45.6065 12.8174H35.3683H26.8365C24.6647 12.8174 22.8032 14.6931 22.8032 16.8815V30.4803C22.8032 34.2317 25.9057 37.3579 29.6287 37.3579H82.3711C86.0941 37.3579 89.1966 34.2317 89.1966 30.4803V16.8815C89.1966 14.6931 87.3351 12.8174 85.1633 12.8174H76.6315Z" fill="white" stroke="#070707" stroke-width="3" stroke-linecap="round" stroke-linejoin="round"/>
<path d="M46.3823 60.0227H89.3519" stroke="#070707" stroke-width="3" stroke-linecap="round" stroke-linejoin="round"/>
<path d="M46.3823 105.196H89.3519" stroke="#070707" stroke-width="3" stroke-linecap="round" stroke-linejoin="round"/>
<path d="M46.3823 127.705H89.3519" stroke="#070707" stroke-width="3" stroke-linecap="round" stroke-linejoin="round"/>
<path d="M46.5371 82.6875H89.3515" stroke="#070707" stroke-width="3" stroke-linecap="round" stroke-linejoin="round"/>
<path d="M22.8032 58.1471L28.0775 64.5558L37.8503 50.019" stroke="white" stroke-width="3" stroke-linecap="round" stroke-linejoin="round"/>
<path d="M22.8032 86.2826L28.0775 92.6913L37.8503 78.1545" stroke="white" stroke-width="3" stroke-linecap="round" stroke-linejoin="round"/>
<path d="M22.8032 127.079L28.0775 133.488L37.8503 118.951" stroke="white" stroke-width="3" stroke-linecap="round" stroke-linejoin="round"/>
</g>
<defs>
<clipPath id="clip0_194_96">
<rect width="112" height="166" fill="white"/>
</clipPath>
</defs>
</svg>
