<svg width="148" height="124" viewBox="0 0 148 124" fill="none" xmlns="http://www.w3.org/2000/svg">
<g clip-path="url(#clip0_194_31)">
<path d="M90.6002 103.6V93.2H74.2002H73.4002H57.0002V103.6C57.0002 109.3 52.7002 114 47.2002 114.6V114.7H73.4002H74.2002H100.4V114.6C94.9002 114 90.6002 109.3 90.6002 103.6Z" fill="#D8DBD7" stroke="#010200" stroke-width="3"/>
<path d="M146.1 94.5C146.1 97.5 143.7 100 140.6 100H7C4 100 1.5 97.6 1.5 94.5V20.8C1.5 17.8 3.9 15.3 7 15.3H140.7C143.7 15.3 146.2 17.7 146.2 20.8V94.5H146.1Z" fill="#D8DBD7" stroke="#010200" stroke-width="3"/>
<path d="M146.1 80.7C146.1 83.7 143.7 86.2 140.6 86.2H7C4 86.2 1.5 83.8 1.5 80.7V7C1.5 4 3.9 1.5 7 1.5H140.7C143.7 1.5 146.2 3.9 146.2 7V80.7H146.1Z" fill="white" stroke="black" stroke-width="3" stroke-linecap="round" stroke-linejoin="round"/>
<path d="M139.4 7.69995H8.2002V79.7H139.4V7.69995Z" fill="#3B94EC"/>
<path d="M110 119.2C110 121 108.6 122.4 106.8 122.4H40.9002C39.1002 122.4 37.7002 121 37.7002 119.2V117.9C37.7002 116.1 39.1002 114.7 40.9002 114.7H106.8C108.6 114.7 110 116.1 110 117.9V119.2Z" fill="#D8DBD7" stroke="#010200" stroke-width="3"/>
<path d="M100.6 75.6H42.1001V14" stroke="black" stroke-width="3" stroke-linecap="round" stroke-linejoin="round"/>
<path d="M57.3002 50.2H48.2002V69.1999H57.3002V50.2Z" fill="white"/>
<path d="M71.4003 55.3H62.3003V69.2H71.4003V55.3Z" fill="white"/>
<path d="M85.4999 47.7H76.3999V69.1999H85.4999V47.7Z" fill="white"/>
<path d="M99.7001 40.1001H90.6001V69.2001H99.7001V40.1001Z" fill="white"/>
<path d="M86.6001 32.1L93.2001 16L77.1001 22.6C84.6001 30 79.2001 24.7 86.6001 32.1Z" fill="white" stroke="black" stroke-width="3" stroke-linecap="round" stroke-linejoin="round"/>
<path d="M47.1001 43.2001L59.0001 31.3001L68.3001 40.6001L81.3001 27.6001" stroke="black" stroke-width="3" stroke-linecap="round" stroke-linejoin="round"/>
</g>
<defs>
<clipPath id="clip0_194_31">
<rect width="147.6" height="123.9" fill="white"/>
</clipPath>
</defs>
</svg>
