<svg width="147" height="124" viewBox="0 0 147 124" fill="none" xmlns="http://www.w3.org/2000/svg">
<g clip-path="url(#clip0_194_4)">
<path d="M90.3493 103.351V92.9365H73.898H73.102H56.6507V103.351C56.6507 109.056 52.4052 113.766 46.833 114.429V114.496H73.102H73.898H100.167V114.429C94.6611 113.766 90.3493 109.056 90.3493 103.351Z" fill="#3B94EC" stroke="black" stroke-width="3" stroke-linecap="round" stroke-linejoin="round"/>
<path d="M146.005 94.3296C146.005 97.381 143.551 99.7691 140.566 99.7691H6.43465C3.44954 99.7691 0.995117 97.3147 0.995117 94.3296V20.2989C0.995117 17.2475 3.44954 14.8594 6.43465 14.8594H140.499C143.551 14.8594 145.939 17.3138 145.939 20.2989V94.3296H146.005Z" fill="#DDDDDD" stroke="black" stroke-width="3" stroke-linecap="round" stroke-linejoin="round"/>
<path d="M146.005 80.4653C146.005 83.5168 143.551 85.9049 140.566 85.9049H6.43465C3.44954 85.9049 0.995117 83.4504 0.995117 80.4653V6.43465C0.995117 3.44954 3.44954 0.995117 6.43465 0.995117H140.499C143.551 0.995117 145.939 3.44954 145.939 6.43465V80.4653H146.005Z" fill="#3B94EC" stroke="black" stroke-width="3" stroke-linecap="round" stroke-linejoin="round"/>
<path d="M139.239 7.16431H7.69482V79.3376H139.239V7.16431Z" fill="white" stroke="black" stroke-width="3" stroke-linecap="round" stroke-linejoin="round"/>
<path d="M109.719 119.073C109.719 120.864 108.26 122.323 106.469 122.323H40.4648C38.6737 122.323 37.2144 120.864 37.2144 119.073V117.746C37.2144 115.955 38.6737 114.496 40.4648 114.496H106.535C108.326 114.496 109.786 115.955 109.786 117.746V119.073H109.719Z" fill="#DDDDDD" stroke="black" stroke-width="3" stroke-linecap="round" stroke-linejoin="round"/>
<path d="M74.6943 17.0483C67.331 17.0483 60.6311 19.9671 55.6559 24.7433C54.3955 25.9373 54.5945 27.9937 55.9876 29.0551C57.3143 30.1828 59.3044 29.9838 60.6311 28.8561C64.3459 25.473 69.3211 23.4166 74.6943 23.4166C86.303 23.4166 95.7227 32.8362 95.7227 44.445C95.7227 56.0538 86.303 65.4734 74.6943 65.4734C63.6162 65.4734 54.5282 56.8498 53.7322 46.0371H57.5796L50.6807 36.2857L43.8481 46.0371H47.3639C48.2263 60.4319 60.1667 71.8417 74.7606 71.8417C89.8851 71.8417 102.157 59.5695 102.157 44.445C102.091 29.3205 89.8188 17.0483 74.6943 17.0483Z" fill="white" stroke="black" stroke-width="3" stroke-linecap="round" stroke-linejoin="round"/>
<path d="M74.6943 17.0483C67.331 17.0483 60.6311 19.9671 55.6559 24.7433C54.3955 25.9373 54.5945 27.9937 55.9876 29.0551C57.3143 30.1828 59.3044 29.9838 60.6311 28.8561C64.3459 25.473 69.3211 23.4166 74.6943 23.4166C86.303 23.4166 95.7227 32.8362 95.7227 44.445C95.7227 56.0538 86.303 65.4734 74.6943 65.4734C63.6162 65.4734 54.5282 56.8498 53.7322 46.0371H57.5796L50.6807 36.2857L43.8481 46.0371H47.3639C48.2263 60.4319 60.1667 71.8417 74.7606 71.8417C89.8851 71.8417 102.157 59.5695 102.157 44.445C102.091 29.3205 89.8188 17.0483 74.6943 17.0483Z" fill="white" stroke="black" stroke-width="3" stroke-linecap="round" stroke-linejoin="round"/>
<path d="M74.4953 52.6707H64.0143V51.2113L69.5865 45.0421C70.3825 44.1134 70.9795 43.3837 71.3112 42.7867C71.6429 42.1897 71.7756 41.5926 71.7756 40.9956C71.7756 40.1333 71.5102 39.4699 71.0459 38.9392C70.5152 38.4085 69.8518 38.1432 68.9895 38.1432C67.9944 38.1432 67.1984 38.4085 66.6014 39.0055C66.0707 39.6026 65.739 40.3986 65.739 41.3936H63.6826C63.6826 39.9343 64.147 38.7402 65.0757 37.8115C66.0044 36.8828 67.2647 36.4185 68.8568 36.4185C70.3162 36.4185 71.5102 36.8165 72.3726 37.6125C73.235 38.4085 73.6993 39.4036 73.6993 40.7303C73.6993 42.3223 72.7043 44.1797 70.7142 46.3688L66.4024 51.0123H74.429V52.6707H74.4953Z" fill="black"/>
<path d="M85.2415 47.2311H87.4969V48.8895H85.2415V52.6043H83.1851V48.8895H75.8882V47.6955L83.0524 36.6174H85.2415V47.2311ZM78.2099 47.2311H83.1851V39.4035L82.9198 39.8679L78.2099 47.2311Z" fill="black"/>
</g>
<defs>
<clipPath id="clip0_194_4">
<rect width="147" height="123.252" fill="white"/>
</clipPath>
</defs>
</svg>
