<svg width="135" height="135" viewBox="0 0 135 135" fill="none" xmlns="http://www.w3.org/2000/svg">
<g clip-path="url(#clip0_194_20)">
<path d="M11.4061 1.02285C11.2359 0.170576 12.2573 -0.340787 12.768 0.170576L25.1955 12.6138C26.3872 13.8069 27.0682 15.341 27.4086 16.8751L29.2813 29.4888L13.2788 13.466L11.4061 1.02285Z" fill="#3B94EC"/>
<path d="M1.02127 11.4205C0.170075 11.2501 -0.340644 12.2728 0.170075 12.7842L12.4273 25.2274C13.619 26.4206 15.1512 27.1024 16.6833 27.4433L29.1108 29.4887L13.2785 13.466L1.02127 11.4205Z" fill="#3B94EC"/>
<path d="M22.3013 77.216C22.3013 107.727 46.986 132.443 77.4589 132.443C107.932 132.443 132.617 107.727 132.617 77.216C132.446 46.7046 107.762 22.1592 77.4589 22.1592C46.986 22.1592 22.3013 46.7046 22.3013 77.216Z" fill="white" stroke="black" stroke-width="3"/>
<path d="M34.2183 77.2161C34.2183 53.3524 53.6256 34.0911 77.2889 34.0911C101.122 34.0911 120.359 53.5229 120.359 77.2161C120.359 101.08 100.952 120.341 77.2889 120.341C53.6256 120.512 34.2183 101.08 34.2183 77.2161Z" fill="#3B94EC"/>
<path d="M47.1562 77.2161C47.1562 60.5116 60.7754 47.0457 77.2887 47.0457C93.9721 47.0457 107.421 60.682 107.421 77.2161C107.421 93.9207 93.8019 107.387 77.2887 107.387C60.7754 107.557 47.1562 93.9207 47.1562 77.2161Z" fill="white"/>
<path d="M66.2231 77.2161C66.2231 83.3524 71.1601 88.4661 77.459 88.4661C83.7578 88.4661 88.5245 83.5229 88.5245 77.2161C88.5245 71.0797 83.5876 65.9661 77.2887 65.9661C70.9899 65.9661 66.2231 71.0797 66.2231 77.2161Z" fill="#3B94EC"/>
<path d="M13.1084 13.4661L69.2875 69.8865" stroke="black" stroke-width="3"/>
<path d="M65.7125 57.1023L78.6507 77.5568C78.6507 77.5568 78.6507 77.5568 78.4804 77.7273L77.9697 78.2387C77.6292 78.5796 77.2888 78.75 76.778 78.9205L56.5195 66.1364L64.691 65.4546L65.7125 57.1023Z" fill="black"/>
</g>
<defs>
<clipPath id="clip0_194_20">
<rect width="135" height="135" fill="white"/>
</clipPath>
</defs>
</svg>
